<svg width="401" height="400" xmlns="http://www.w3.org/2000/svg">

 <g>
  <title>background</title>
  <rect fill="none" id="canvas_background" height="402" width="403" y="-1" x="-1"/>
 </g>
 <g>
  <title>Layer 1</title>
  <g id="svg_1">
   <path id="svg_2" d="m394.508789,248.261307c-26.715027,106.875015 -135.244049,171.917831 -242.410492,145.266037c-107.12265,-26.645538 -172.335112,-134.898376 -145.607573,-241.767212c26.702574,-106.887581 135.231565,-171.936493 242.366758,-145.290964c107.160217,26.645528 172.366394,134.910852 145.651306,241.792139z" fill="#f7931a"/>
   <path id="svg_3" d="m288.68631,171.579056c3.981567,-26.545731 -16.282867,-40.816116 -43.99173,-50.335999l8.988342,-35.959534l-21.945801,-5.455032l-8.750793,35.011963c-5.769348,-1.433868 -11.694885,-2.786781 -17.582947,-4.127136l8.813354,-35.242653l-21.93335,-5.45504l-8.994598,35.947174c-4.775482,-1.084839 -9.463409,-2.157127 -14.013824,-3.285538l0.024963,-0.11216l-30.26535,-7.5373l-5.838074,23.378731s16.282867,3.721802 15.939026,3.952484c8.888336,2.213257 10.494751,8.07972 10.225983,12.730553l-10.238464,40.965744c0.612488,0.155823 1.406433,0.380325 2.281372,0.729446c-0.731232,-0.180832 -1.512573,-0.380325 -2.318848,-0.573624l-14.35144,57.386993c-1.087555,2.693283 -3.844116,6.733093 -10.057129,5.199432c0.218689,0.318008 -15.951538,-3.971222 -15.951538,-3.971222l-10.894867,25.05574l28.559052,7.100952c5.312988,1.327789 10.519653,2.718079 15.645203,4.027374l-9.082153,36.371033l21.920898,5.455048l8.994568,-35.984558c5.988098,1.62088 11.801086,3.117157 17.489166,4.526093l-8.963409,35.816193l21.945862,5.455017l9.082153,-36.30246c37.422272,7.063446 65.562439,4.214386 77.407349,-29.544464c9.544617,-27.181656 -0.475067,-42.861008 -20.164398,-53.085297c14.338898,-3.297897 25.139893,-12.705521 28.021423,-32.137955zm-50.142303,70.129913c-6.781921,27.181747 -52.66745,12.487381 -67.543884,8.802872l12.051086,-48.185028c14.876465,3.70314 62.580994,11.034698 55.492798,39.382156zm6.788147,-70.52269c-6.18811,24.725357 -44.379242,12.163193 -56.767883,9.083405l10.926025,-43.702591c12.388672,3.079773 52.286255,8.82782 45.841858,34.619186z" fill="#FFF"/>
  </g>
 </g>
</svg>